<mxfile host="app.diagrams.net" modified="2023-04-30T13:35:44.279Z" agent="Mozilla/5.0 (Windows NT 10.0; Win64; x64) AppleWebKit/537.36 (KHTML, like Gecko) Chrome/112.0.0.0 Safari/537.36" etag="sJ5QVajvCXZUUAV80jql" version="21.1.8" type="device">
  <diagram name="Page-1" id="L43-JTK5kob7g6Qs0Bmw">
    <mxGraphModel dx="1509" dy="684" grid="1" gridSize="10" guides="1" tooltips="1" connect="1" arrows="1" fold="1" page="1" pageScale="1" pageWidth="2000" pageHeight="1300" math="0" shadow="0">
      <root>
        <mxCell id="0" />
        <mxCell id="1" parent="0" />
        <mxCell id="6TXETei04RXSHOcSy2M6-5" style="rounded=0;orthogonalLoop=1;jettySize=auto;html=1;exitX=0.5;exitY=1;exitDx=0;exitDy=0;entryX=0.5;entryY=0;entryDx=0;entryDy=0;" edge="1" parent="1" source="6TXETei04RXSHOcSy2M6-1" target="6TXETei04RXSHOcSy2M6-3">
          <mxGeometry relative="1" as="geometry" />
        </mxCell>
        <mxCell id="6TXETei04RXSHOcSy2M6-6" style="rounded=0;orthogonalLoop=1;jettySize=auto;html=1;exitX=0.5;exitY=1;exitDx=0;exitDy=0;entryX=0.5;entryY=0;entryDx=0;entryDy=0;" edge="1" parent="1" source="6TXETei04RXSHOcSy2M6-1" target="6TXETei04RXSHOcSy2M6-4">
          <mxGeometry relative="1" as="geometry" />
        </mxCell>
        <mxCell id="6TXETei04RXSHOcSy2M6-1" value="&lt;font style=&quot;font-size: 20px;&quot;&gt;Home Page&lt;/font&gt;" style="rounded=0;whiteSpace=wrap;html=1;" vertex="1" parent="1">
          <mxGeometry x="130" y="30" width="120" height="60" as="geometry" />
        </mxCell>
        <mxCell id="6TXETei04RXSHOcSy2M6-3" value="&lt;font style=&quot;font-size: 20px;&quot;&gt;Schedule&lt;br&gt;(for guests)&lt;br&gt;&lt;/font&gt;" style="rounded=0;whiteSpace=wrap;html=1;" vertex="1" parent="1">
          <mxGeometry x="30" y="190" width="120" height="60" as="geometry" />
        </mxCell>
        <mxCell id="6TXETei04RXSHOcSy2M6-8" style="edgeStyle=none;shape=connector;rounded=0;orthogonalLoop=1;jettySize=auto;html=1;exitX=0.25;exitY=1;exitDx=0;exitDy=0;entryX=0.5;entryY=0;entryDx=0;entryDy=0;labelBackgroundColor=default;strokeColor=default;fontFamily=Helvetica;fontSize=11;fontColor=default;endArrow=classic;" edge="1" parent="1" source="6TXETei04RXSHOcSy2M6-4" target="6TXETei04RXSHOcSy2M6-7">
          <mxGeometry relative="1" as="geometry" />
        </mxCell>
        <mxCell id="6TXETei04RXSHOcSy2M6-10" style="edgeStyle=none;shape=connector;rounded=0;orthogonalLoop=1;jettySize=auto;html=1;exitX=0.5;exitY=1;exitDx=0;exitDy=0;entryX=0.5;entryY=0;entryDx=0;entryDy=0;labelBackgroundColor=default;strokeColor=default;fontFamily=Helvetica;fontSize=11;fontColor=default;endArrow=classic;" edge="1" parent="1" source="6TXETei04RXSHOcSy2M6-4" target="6TXETei04RXSHOcSy2M6-9">
          <mxGeometry relative="1" as="geometry" />
        </mxCell>
        <mxCell id="6TXETei04RXSHOcSy2M6-12" style="edgeStyle=none;shape=connector;rounded=0;orthogonalLoop=1;jettySize=auto;html=1;exitX=0.75;exitY=1;exitDx=0;exitDy=0;entryX=0.5;entryY=0;entryDx=0;entryDy=0;labelBackgroundColor=default;strokeColor=default;fontFamily=Helvetica;fontSize=11;fontColor=default;endArrow=classic;" edge="1" parent="1" source="6TXETei04RXSHOcSy2M6-4" target="6TXETei04RXSHOcSy2M6-11">
          <mxGeometry relative="1" as="geometry" />
        </mxCell>
        <mxCell id="6TXETei04RXSHOcSy2M6-4" value="&lt;font style=&quot;font-size: 20px;&quot;&gt;Login Page&lt;/font&gt;" style="rounded=0;whiteSpace=wrap;html=1;" vertex="1" parent="1">
          <mxGeometry x="240" y="190" width="120" height="60" as="geometry" />
        </mxCell>
        <mxCell id="6TXETei04RXSHOcSy2M6-14" style="edgeStyle=none;shape=connector;rounded=0;orthogonalLoop=1;jettySize=auto;html=1;exitX=0.5;exitY=1;exitDx=0;exitDy=0;entryX=0.5;entryY=0;entryDx=0;entryDy=0;labelBackgroundColor=default;strokeColor=default;fontFamily=Helvetica;fontSize=11;fontColor=default;endArrow=classic;" edge="1" parent="1" source="6TXETei04RXSHOcSy2M6-7" target="6TXETei04RXSHOcSy2M6-13">
          <mxGeometry relative="1" as="geometry" />
        </mxCell>
        <mxCell id="6TXETei04RXSHOcSy2M6-15" value="Redirects" style="edgeLabel;html=1;align=center;verticalAlign=middle;resizable=0;points=[];fontSize=17;fontFamily=Helvetica;fontColor=default;" vertex="1" connectable="0" parent="6TXETei04RXSHOcSy2M6-14">
          <mxGeometry x="-0.26" y="1" relative="1" as="geometry">
            <mxPoint x="-1" y="13" as="offset" />
          </mxGeometry>
        </mxCell>
        <mxCell id="6TXETei04RXSHOcSy2M6-7" value="&lt;font style=&quot;font-size: 20px;&quot;&gt;Author&lt;/font&gt;" style="rounded=0;whiteSpace=wrap;html=1;" vertex="1" parent="1">
          <mxGeometry x="20" y="360" width="120" height="60" as="geometry" />
        </mxCell>
        <mxCell id="6TXETei04RXSHOcSy2M6-17" style="edgeStyle=none;shape=connector;rounded=0;orthogonalLoop=1;jettySize=auto;html=1;exitX=0.5;exitY=1;exitDx=0;exitDy=0;entryX=0.5;entryY=0;entryDx=0;entryDy=0;labelBackgroundColor=default;strokeColor=default;fontFamily=Helvetica;fontSize=11;fontColor=default;endArrow=classic;" edge="1" parent="1" source="6TXETei04RXSHOcSy2M6-9" target="6TXETei04RXSHOcSy2M6-16">
          <mxGeometry relative="1" as="geometry" />
        </mxCell>
        <mxCell id="6TXETei04RXSHOcSy2M6-9" value="&lt;font style=&quot;font-size: 20px;&quot;&gt;Reviewer&lt;/font&gt;" style="rounded=0;whiteSpace=wrap;html=1;" vertex="1" parent="1">
          <mxGeometry x="240" y="360" width="120" height="60" as="geometry" />
        </mxCell>
        <mxCell id="6TXETei04RXSHOcSy2M6-11" value="&lt;span style=&quot;font-size: 20px;&quot;&gt;Organizer&lt;/span&gt;" style="rounded=0;whiteSpace=wrap;html=1;" vertex="1" parent="1">
          <mxGeometry x="460" y="360" width="120" height="60" as="geometry" />
        </mxCell>
        <mxCell id="6TXETei04RXSHOcSy2M6-13" value="&lt;span style=&quot;font-size: 20px;&quot;&gt;Submit Paper Page&lt;/span&gt;" style="rounded=0;whiteSpace=wrap;html=1;" vertex="1" parent="1">
          <mxGeometry x="20" y="520" width="120" height="60" as="geometry" />
        </mxCell>
        <mxCell id="6TXETei04RXSHOcSy2M6-16" value="&lt;span style=&quot;font-size: 20px;&quot;&gt;Review Page&lt;/span&gt;" style="rounded=0;whiteSpace=wrap;html=1;" vertex="1" parent="1">
          <mxGeometry x="240" y="520" width="120" height="60" as="geometry" />
        </mxCell>
        <mxCell id="6TXETei04RXSHOcSy2M6-18" value="Redirects" style="edgeLabel;html=1;align=center;verticalAlign=middle;resizable=0;points=[];fontSize=17;fontFamily=Helvetica;fontColor=default;" vertex="1" connectable="0" parent="1">
          <mxGeometry x="300" y="470" as="geometry" />
        </mxCell>
        <mxCell id="6TXETei04RXSHOcSy2M6-19" value="&lt;span style=&quot;font-size: 20px;&quot;&gt;Session Edit Page&lt;/span&gt;" style="rounded=0;whiteSpace=wrap;html=1;" vertex="1" parent="1">
          <mxGeometry x="460" y="520" width="120" height="60" as="geometry" />
        </mxCell>
        <mxCell id="6TXETei04RXSHOcSy2M6-20" style="edgeStyle=none;shape=connector;rounded=0;orthogonalLoop=1;jettySize=auto;html=1;exitX=0.5;exitY=1;exitDx=0;exitDy=0;entryX=0.5;entryY=0;entryDx=0;entryDy=0;labelBackgroundColor=default;strokeColor=default;fontFamily=Helvetica;fontSize=11;fontColor=default;endArrow=classic;" edge="1" parent="1">
          <mxGeometry relative="1" as="geometry">
            <mxPoint x="519.5" y="420" as="sourcePoint" />
            <mxPoint x="519.5" y="520" as="targetPoint" />
          </mxGeometry>
        </mxCell>
        <mxCell id="6TXETei04RXSHOcSy2M6-21" value="Redirects" style="edgeLabel;html=1;align=center;verticalAlign=middle;resizable=0;points=[];fontSize=17;fontFamily=Helvetica;fontColor=default;" vertex="1" connectable="0" parent="1">
          <mxGeometry x="520" y="470" as="geometry" />
        </mxCell>
        <mxCell id="6TXETei04RXSHOcSy2M6-22" value="Contains" style="edgeLabel;html=1;align=center;verticalAlign=middle;resizable=0;points=[];fontSize=17;fontFamily=Helvetica;fontColor=default;" vertex="1" connectable="0" parent="1">
          <mxGeometry x="130" y="150" as="geometry">
            <mxPoint y="-6" as="offset" />
          </mxGeometry>
        </mxCell>
        <mxCell id="6TXETei04RXSHOcSy2M6-23" value="Has Link For" style="edgeLabel;html=1;align=center;verticalAlign=middle;resizable=0;points=[];fontSize=17;fontFamily=Helvetica;fontColor=default;" vertex="1" connectable="0" parent="1">
          <mxGeometry x="260" y="150" as="geometry">
            <mxPoint y="-6" as="offset" />
          </mxGeometry>
        </mxCell>
        <mxCell id="6TXETei04RXSHOcSy2M6-24" style="rounded=0;orthogonalLoop=1;jettySize=auto;html=1;exitX=0.5;exitY=1;exitDx=0;exitDy=0;entryX=0.5;entryY=0;entryDx=0;entryDy=0;" edge="1" parent="1" source="6TXETei04RXSHOcSy2M6-26" target="6TXETei04RXSHOcSy2M6-27">
          <mxGeometry relative="1" as="geometry" />
        </mxCell>
        <mxCell id="6TXETei04RXSHOcSy2M6-25" style="rounded=0;orthogonalLoop=1;jettySize=auto;html=1;exitX=0.5;exitY=1;exitDx=0;exitDy=0;entryX=0.5;entryY=0;entryDx=0;entryDy=0;" edge="1" parent="1" source="6TXETei04RXSHOcSy2M6-26" target="6TXETei04RXSHOcSy2M6-31">
          <mxGeometry relative="1" as="geometry" />
        </mxCell>
        <mxCell id="6TXETei04RXSHOcSy2M6-47" style="edgeStyle=none;shape=connector;rounded=0;orthogonalLoop=1;jettySize=auto;html=1;exitX=0.5;exitY=1;exitDx=0;exitDy=0;entryX=0.55;entryY=-0.011;entryDx=0;entryDy=0;entryPerimeter=0;labelBackgroundColor=default;strokeColor=default;fontFamily=Helvetica;fontSize=11;fontColor=default;endArrow=classic;" edge="1" parent="1" source="6TXETei04RXSHOcSy2M6-26" target="6TXETei04RXSHOcSy2M6-46">
          <mxGeometry relative="1" as="geometry" />
        </mxCell>
        <mxCell id="6TXETei04RXSHOcSy2M6-53" style="edgeStyle=none;shape=connector;rounded=0;orthogonalLoop=1;jettySize=auto;html=1;exitX=0.5;exitY=1;exitDx=0;exitDy=0;entryX=0.5;entryY=0;entryDx=0;entryDy=0;labelBackgroundColor=default;strokeColor=default;fontFamily=Helvetica;fontSize=11;fontColor=default;endArrow=classic;" edge="1" parent="1" source="6TXETei04RXSHOcSy2M6-26" target="6TXETei04RXSHOcSy2M6-49">
          <mxGeometry relative="1" as="geometry" />
        </mxCell>
        <mxCell id="6TXETei04RXSHOcSy2M6-54" style="edgeStyle=none;shape=connector;rounded=0;orthogonalLoop=1;jettySize=auto;html=1;exitX=0.5;exitY=1;exitDx=0;exitDy=0;entryX=0.5;entryY=0;entryDx=0;entryDy=0;labelBackgroundColor=default;strokeColor=default;fontFamily=Helvetica;fontSize=11;fontColor=default;endArrow=classic;" edge="1" parent="1" source="6TXETei04RXSHOcSy2M6-26" target="6TXETei04RXSHOcSy2M6-50">
          <mxGeometry relative="1" as="geometry" />
        </mxCell>
        <mxCell id="6TXETei04RXSHOcSy2M6-55" style="edgeStyle=none;shape=connector;rounded=0;orthogonalLoop=1;jettySize=auto;html=1;exitX=0.5;exitY=1;exitDx=0;exitDy=0;entryX=0.5;entryY=0;entryDx=0;entryDy=0;labelBackgroundColor=default;strokeColor=default;fontFamily=Helvetica;fontSize=11;fontColor=default;endArrow=classic;" edge="1" parent="1" source="6TXETei04RXSHOcSy2M6-26" target="6TXETei04RXSHOcSy2M6-52">
          <mxGeometry relative="1" as="geometry" />
        </mxCell>
        <mxCell id="6TXETei04RXSHOcSy2M6-56" style="edgeStyle=none;shape=connector;rounded=0;orthogonalLoop=1;jettySize=auto;html=1;exitX=0.5;exitY=1;exitDx=0;exitDy=0;entryX=0.5;entryY=0;entryDx=0;entryDy=0;labelBackgroundColor=default;strokeColor=default;fontFamily=Helvetica;fontSize=11;fontColor=default;endArrow=classic;" edge="1" parent="1" source="6TXETei04RXSHOcSy2M6-26" target="6TXETei04RXSHOcSy2M6-48">
          <mxGeometry relative="1" as="geometry" />
        </mxCell>
        <mxCell id="6TXETei04RXSHOcSy2M6-57" style="edgeStyle=none;shape=connector;rounded=0;orthogonalLoop=1;jettySize=auto;html=1;exitX=0.5;exitY=1;exitDx=0;exitDy=0;entryX=0.5;entryY=0;entryDx=0;entryDy=0;labelBackgroundColor=default;strokeColor=default;fontFamily=Helvetica;fontSize=11;fontColor=default;endArrow=classic;" edge="1" parent="1" source="6TXETei04RXSHOcSy2M6-26" target="6TXETei04RXSHOcSy2M6-51">
          <mxGeometry relative="1" as="geometry" />
        </mxCell>
        <mxCell id="6TXETei04RXSHOcSy2M6-26" value="&lt;font style=&quot;font-size: 20px;&quot;&gt;api&lt;/font&gt;" style="rounded=0;whiteSpace=wrap;html=1;" vertex="1" parent="1">
          <mxGeometry x="880" y="710" width="120" height="60" as="geometry" />
        </mxCell>
        <mxCell id="6TXETei04RXSHOcSy2M6-27" value="&lt;font style=&quot;font-size: 20px;&quot;&gt;conference-dates&lt;br&gt;&lt;/font&gt;" style="rounded=0;whiteSpace=wrap;html=1;" vertex="1" parent="1">
          <mxGeometry x="640" y="880" width="120" height="60" as="geometry" />
        </mxCell>
        <mxCell id="6TXETei04RXSHOcSy2M6-31" value="&lt;font style=&quot;font-size: 20px;&quot;&gt;institutions&lt;/font&gt;" style="rounded=0;whiteSpace=wrap;html=1;" vertex="1" parent="1">
          <mxGeometry x="800" y="880" width="120" height="60" as="geometry" />
        </mxCell>
        <mxCell id="6TXETei04RXSHOcSy2M6-46" value="&lt;font style=&quot;font-size: 20px;&quot;&gt;locations&lt;/font&gt;" style="rounded=0;whiteSpace=wrap;html=1;" vertex="1" parent="1">
          <mxGeometry x="960" y="880" width="120" height="60" as="geometry" />
        </mxCell>
        <mxCell id="6TXETei04RXSHOcSy2M6-48" value="&lt;font style=&quot;font-size: 20px;&quot;&gt;login&lt;br&gt;&lt;/font&gt;" style="rounded=0;whiteSpace=wrap;html=1;" vertex="1" parent="1">
          <mxGeometry x="480" y="880" width="120" height="60" as="geometry" />
        </mxCell>
        <mxCell id="6TXETei04RXSHOcSy2M6-59" style="edgeStyle=none;shape=connector;rounded=0;orthogonalLoop=1;jettySize=auto;html=1;exitX=0.5;exitY=1;exitDx=0;exitDy=0;entryX=0.5;entryY=0;entryDx=0;entryDy=0;labelBackgroundColor=default;strokeColor=default;fontFamily=Helvetica;fontSize=11;fontColor=default;endArrow=classic;" edge="1" parent="1" source="6TXETei04RXSHOcSy2M6-49" target="6TXETei04RXSHOcSy2M6-58">
          <mxGeometry relative="1" as="geometry" />
        </mxCell>
        <mxCell id="6TXETei04RXSHOcSy2M6-49" value="&lt;font style=&quot;font-size: 20px;&quot;&gt;papers&lt;br&gt;&lt;/font&gt;" style="rounded=0;whiteSpace=wrap;html=1;" vertex="1" parent="1">
          <mxGeometry x="1120" y="880" width="120" height="60" as="geometry" />
        </mxCell>
        <mxCell id="6TXETei04RXSHOcSy2M6-61" style="edgeStyle=none;shape=connector;rounded=0;orthogonalLoop=1;jettySize=auto;html=1;exitX=0.5;exitY=1;exitDx=0;exitDy=0;entryX=0.5;entryY=0;entryDx=0;entryDy=0;labelBackgroundColor=default;strokeColor=default;fontFamily=Helvetica;fontSize=11;fontColor=default;endArrow=classic;" edge="1" parent="1" source="6TXETei04RXSHOcSy2M6-50" target="6TXETei04RXSHOcSy2M6-60">
          <mxGeometry relative="1" as="geometry" />
        </mxCell>
        <mxCell id="6TXETei04RXSHOcSy2M6-50" value="&lt;font style=&quot;font-size: 20px;&quot;&gt;sessions&lt;br&gt;&lt;/font&gt;" style="rounded=0;whiteSpace=wrap;html=1;" vertex="1" parent="1">
          <mxGeometry x="1280" y="880" width="120" height="60" as="geometry" />
        </mxCell>
        <mxCell id="6TXETei04RXSHOcSy2M6-51" value="&lt;font style=&quot;font-size: 20px;&quot;&gt;times&lt;br&gt;&lt;/font&gt;" style="rounded=0;whiteSpace=wrap;html=1;" vertex="1" parent="1">
          <mxGeometry x="320" y="880" width="120" height="60" as="geometry" />
        </mxCell>
        <mxCell id="6TXETei04RXSHOcSy2M6-63" style="edgeStyle=none;shape=connector;rounded=0;orthogonalLoop=1;jettySize=auto;html=1;exitX=0.5;exitY=1;exitDx=0;exitDy=0;entryX=0.5;entryY=0;entryDx=0;entryDy=0;labelBackgroundColor=default;strokeColor=default;fontFamily=Helvetica;fontSize=11;fontColor=default;endArrow=classic;" edge="1" parent="1" source="6TXETei04RXSHOcSy2M6-52" target="6TXETei04RXSHOcSy2M6-62">
          <mxGeometry relative="1" as="geometry" />
        </mxCell>
        <mxCell id="6TXETei04RXSHOcSy2M6-52" value="&lt;font style=&quot;font-size: 20px;&quot;&gt;users&lt;br&gt;&lt;/font&gt;" style="rounded=0;whiteSpace=wrap;html=1;" vertex="1" parent="1">
          <mxGeometry x="1440" y="880" width="120" height="60" as="geometry" />
        </mxCell>
        <mxCell id="6TXETei04RXSHOcSy2M6-58" value="&lt;font style=&quot;font-size: 20px;&quot;&gt;[title]&lt;br&gt;&lt;/font&gt;" style="rounded=0;whiteSpace=wrap;html=1;" vertex="1" parent="1">
          <mxGeometry x="1120" y="980" width="120" height="60" as="geometry" />
        </mxCell>
        <mxCell id="6TXETei04RXSHOcSy2M6-60" value="&lt;font style=&quot;font-size: 20px;&quot;&gt;[title]&lt;br&gt;&lt;/font&gt;" style="rounded=0;whiteSpace=wrap;html=1;" vertex="1" parent="1">
          <mxGeometry x="1280" y="980" width="120" height="60" as="geometry" />
        </mxCell>
        <mxCell id="6TXETei04RXSHOcSy2M6-62" value="&lt;font style=&quot;font-size: 20px;&quot;&gt;[id]&lt;br&gt;&lt;/font&gt;" style="rounded=0;whiteSpace=wrap;html=1;" vertex="1" parent="1">
          <mxGeometry x="1440" y="980" width="120" height="60" as="geometry" />
        </mxCell>
      </root>
    </mxGraphModel>
  </diagram>
</mxfile>
